<svg id="Layer_1" enable-background="new 0 0 512 512" height="512" viewBox="0 0 512 512" width="512" xmlns="http://www.w3.org/2000/svg"><g><path d="m240 382.075h32v122.425h-32z" fill="#fa6f5f"/><g fill="#fa6f5f"><path d="m120.466 160.832c7.81-7.807 15.62-15.614 23.43-23.42-7.55-3.345-23.882-14.005-23.882-43.636v-86.276h-32.014v86.275c0 35.097 16.346 56.069 32.466 67.057z"/><path d="m391.534 160.832c-7.81-7.807-15.62-15.614-23.43-23.42 7.55-3.345 23.882-14.005 23.882-43.636v-86.276h32.014v86.275c0 35.097-16.346 56.069-32.466 67.057z"/></g><path d="m416 210.579c0 85.604-71.634 201.421-160 201.421s-160-115.817-160-201.421 71.634-108.579 160-108.579 160 22.975 160 108.579z" fill="#fc997d"/><path d="m256 102c-5.059 0-10.061.079-15 .238 81.33 2.603 145 27.638 145 108.341s-63.67 188.241-145 200.292c4.939.732 9.941 1.129 15 1.129 88.365 0 160-115.817 160-201.421s-71.635-108.579-160-108.579z" fill="#eb866c"/><path d="m256 382c-30.378 0-62.783-20.521-88.908-56.3-25.347-34.714-41.092-78.825-41.092-115.121 0-29.264 9.77-47.862 31.679-60.305 21.35-12.126 54.43-18.274 98.321-18.274s76.971 6.148 98.321 18.274c21.909 12.443 31.679 31.041 31.679 60.305 0 36.296-15.745 80.407-41.092 115.121-26.125 35.779-58.53 56.3-88.908 56.3z" fill="#fa6f5f"/><path d="m354.321 150.274c-21.35-12.126-54.43-18.274-98.321-18.274-5.151 0-10.148.088-15 .257 36.488 1.272 64.477 7.315 83.321 18.017 21.909 12.443 31.679 31.041 31.679 60.305 0 36.296-15.745 80.407-41.092 115.121-21.861 29.94-48.12 49.185-73.908 54.673 5.03 1.07 10.042 1.627 15 1.627 30.378 0 62.783-20.521 88.908-56.3 25.347-34.714 41.092-78.825 41.092-115.121 0-29.264-9.77-47.862-31.679-60.305z" fill="#eb5e4e"/><path d="m328.571 207.221c-40.12 4.287-73.76 36.886-114.095 37.911-31.376.797-58.927-17.19-88.273-27.344 1.898 34.811 17.197 75.466 40.888 107.913 26.126 35.778 58.531 56.299 88.909 56.299s62.783-20.521 88.908-56.3c24.152-33.078 39.575-74.683 40.976-109.934-18.918-5.932-37.933-10.616-57.313-8.545z" fill="#fedd7a"/><path d="m344.908 325.7c24.152-33.078 39.575-74.683 40.976-109.934-9.93-3.114-19.887-5.872-29.909-7.502.014.765.024 1.534.024 2.314 0 36.296-15.745 80.407-41.092 115.121-21.861 29.94-48.12 49.185-73.908 54.673 5.03 1.07 10.042 1.627 15 1.627 30.379.001 62.784-20.52 88.909-56.299z" fill="#f5d269"/><g><path d="m431.5 7.5c0-4.143-3.357-7.5-7.5-7.5h-32.01c-4.143 0-7.5 3.357-7.5 7.5v86.28c0 10.98-2.402 19.898-7.143 26.61-10.135-6.383-21.923-11.578-35.361-15.565-3.967-1.176-8.146 1.087-9.323 5.058s1.086 8.145 5.058 9.323c47.627 14.13 70.779 44.019 70.779 91.373 0 40.823-17.404 90.02-45.42 128.389-25.936 35.52-63.283 65.532-107.08 65.532-25.056 0-50.702-10.354-74.165-29.945-21.748-18.158-40.811-43.245-55.127-72.546-1.816-3.721-6.308-5.269-10.03-3.446-3.722 1.817-5.265 6.309-3.446 10.03 15.234 31.184 35.634 57.975 58.99 77.477 19.028 15.887 39.521 26.328 60.278 30.854v87.576c0 4.143 3.357 7.5 7.5 7.5h32c4.143 0 7.5-3.357 7.5-7.5v-30.885c0-4.143-3.357-7.5-7.5-7.5s-7.5 3.357-7.5 7.5v23.385h-17v-77.843c2.835.225 5.669.343 8.5.343 2.837 0 5.671-.111 8.5-.331v22.446c0 4.143 3.357 7.5 7.5 7.5s7.5-3.357 7.5-7.5v-24.664c39.04-8.436 72.043-36.746 95.694-69.138 30.247-41.426 48.306-92.729 48.306-137.234 0-21.761-4.442-40.518-13.259-56.219 10.506-11.743 21.259-30.99 21.259-60.579zm-15 86.28c0 22.643-7.262 37.882-15.034 47.712-3.579-4.389-7.59-8.472-12.036-12.247 5.348-7.533 10.06-18.873 10.06-35.466v-78.779h17.01z"/><path d="m114.834 273.334c-7.415-21.672-11.334-43.372-11.334-62.755 0-82.028 70.184-101.079 152.5-101.079 18.989 0 36.331 1.104 51.544 3.281 4.093.584 7.899-2.26 8.487-6.361.587-4.1-2.262-7.899-6.362-8.487-15.914-2.278-33.971-3.433-53.669-3.433-40.12 0-87.336 4.481-121.31 25.854-4.766-6.736-7.18-15.641-7.18-26.573v-86.281c0-4.143-3.357-7.5-7.5-7.5h-32.01c-4.143 0-7.5 3.357-7.5 7.5v86.28c0 29.42 10.779 48.713 21.296 60.535-8.836 15.73-13.296 34.518-13.296 56.264 0 21.015 4.198 44.394 12.141 67.61 1.066 3.115 3.979 5.074 7.096 5.074.806 0 1.625-.131 2.429-.406 3.918-1.339 6.009-5.604 4.668-9.523zm-19.334-179.554v-78.78h17.01v78.78c0 16.527 4.723 27.862 10.083 35.41-4.439 3.77-8.453 7.846-12.029 12.233-7.788-9.903-15.064-25.165-15.064-47.643z"/><path d="m153.975 143.753c-24.202 13.744-35.475 34.979-35.475 66.826 0 37.805 16.298 83.611 42.534 119.544 27.554 37.734 62.167 59.377 94.966 59.377s67.412-21.643 94.966-59.377c26.236-35.933 42.534-81.739 42.534-119.544 0-31.847-11.272-53.082-35.475-66.826-22.494-12.775-56.82-19.253-102.025-19.253s-79.531 6.478-102.025 19.253zm184.876 177.524c-24.697 33.825-54.895 53.223-82.851 53.223s-58.154-19.398-82.851-53.223c-20.263-27.75-34.156-61.621-38.328-92.207 4.764 1.931 9.512 3.982 14.168 5.999 56.287 24.372 75.073 23.392 128.67-2.251 17.458-8.353 33.948-16.242 51.709-18.14 16.568-1.777 33.095 1.897 48.677 6.536-2.678 32.537-17.18 69.914-39.194 100.063zm39.55-115.579c-15.968-4.527-32.949-7.826-50.626-5.936-41.718 4.459-75.361 36.903-113.488 37.87-20.382.537-39.325-7.664-59.337-16.328-6.97-3.018-14.14-6.116-21.424-8.843-.01-.628-.025-1.259-.025-1.883 0-26.6 8.339-42.684 27.883-53.783 20.206-11.476 52.04-17.295 94.616-17.295s74.41 5.819 94.617 17.296c18.319 10.403 26.793 25.186 27.784 48.902z"/></g></g></svg>