<svg id="Layer_1" enable-background="new 0 0 511.279 511.279" height="512" viewBox="0 0 511.279 511.279" width="512" xmlns="http://www.w3.org/2000/svg"><g><g><path d="m104.228 309.374-76.113-33.463v73.567h75.775l8.454-19.107c3.556-8.04-.077-17.44-8.116-20.997z" fill="#55879b"/></g><g><path d="m222.16 315.71c-1.719 0-3.427-.727-4.626-2.142l-28.319-33.414c-17.432-20.568-27.032-46.743-27.032-73.703v-35.809c0-3.347 2.713-6.06 6.06-6.06s6.06 2.713 6.06 6.06v35.809c0 24.094 8.579 47.485 24.157 65.867l28.319 33.414c2.164 2.554 1.848 6.377-.705 8.541-1.137.965-2.529 1.437-3.914 1.437z" fill="#e64937"/></g><g><path d="m208.761 387.986c-5.02 0-9.09-4.069-9.09-9.09v-316.897c0-5.02 4.069-9.09 9.09-9.09s9.09 4.069 9.09 9.09v316.897c0 5.02-4.069 9.09-9.09 9.09z" fill="#b4d7dc"/></g><g><path d="m20.199 458.37c-11.156 0-20.199-9.043-20.199-20.199v-267.528c0-11.156 9.043-20.199 20.199-20.199s20.199 9.043 20.199 20.199v267.528c.001 11.156-9.043 20.199-20.199 20.199z" fill="#965028"/></g><g><path d="m491.08 458.37c-11.156 0-20.199-9.043-20.199-20.199v-267.528c0-11.156 9.043-20.199 20.199-20.199s20.199 9.043 20.199 20.199v267.528c0 11.156-9.043 20.199-20.199 20.199z" fill="#965028"/></g><path d="m20.2 336.985h470.881v64.617h-470.881z" fill="#965028"/><path d="m40.399 329.915v27.374c0 10.446 8.468 18.914 18.914 18.914h392.654c10.446 0 18.914-8.468 18.914-18.914v-27.374z" fill="#a5c8cd"/><ellipse cx="89.827" cy="261.853" fill="#ffb69e" rx="38.32" ry="38.32" transform="matrix(.099 -.995 .995 .099 -179.603 325.441)"/><path d="m444.387 260.843h-267.162c-14.771 0-26.746 11.974-26.746 26.746v44.866c0 14.361 11.642 26.002 26.002 26.002h268.649c14.361 0 26.002-11.642 26.002-26.002v-44.866c0-14.771-11.974-26.746-26.745-26.746z" fill="#55879b"/><g><g><path d="m295.908 329.915h-149.469c-10.505 0-19.021-8.516-19.021-19.021s8.516-19.021 19.021-19.021h149.469c10.505 0 19.021 8.516 19.021 19.021s-8.516 19.021-19.021 19.021z" fill="#ffb69e"/></g></g><g><path d="m168.244 130.826c-3.347 0-6.06-2.713-6.06-6.06v-19.902c0-7.984 6.496-14.48 14.48-14.48h28.322c3.347 0 6.06 2.713 6.06 6.06s-2.713 6.06-6.06 6.06h-28.322c-1.302 0-2.36 1.059-2.36 2.36v19.902c0 3.347-2.713 6.06-6.06 6.06z" fill="#b4d7dc"/></g><path d="m184.298 114.05h-31.766c-3.365 0-6.093 2.728-6.093 6.093v17.999l21.976 12.268 21.976-12.268v-17.999c0-3.366-2.728-6.093-6.093-6.093z" fill="#b4d7dc"/><path d="m146.439 138.141v30.669c0 3.365 2.728 6.093 6.093 6.093h31.766c3.365 0 6.093-2.728 6.093-6.093v-30.669z" fill="#e64937"/></g></svg>