<?xml version="1.0" encoding="iso-8859-1"?>
<!-- Generator: Adobe Illustrator 19.0.0, SVG Export Plug-In . SVG Version: 6.00 Build 0)  -->
<svg version="1.1" id="Capa_1" xmlns="http://www.w3.org/2000/svg" xmlns:xlink="http://www.w3.org/1999/xlink" x="0px" y="0px"
	 viewBox="0 0 512 512" style="enable-background:new 0 0 512 512;" xml:space="preserve">
<path style="fill:#ACABB1;" d="M83.747,459.91c0.072,2.313-0.176,4.564-0.702,6.701c-2.643,10.748-12.338,18.781-23.975,18.781
	c-13.949,0-25.121-11.543-24.677-25.482l7.682-306.562h33.99L83.747,459.91z"/>
<path style="fill:#C6C5CA;" d="M83.747,459.91c0.072,2.313-0.176,4.564-0.702,6.701c-13.619-0.382-24.398-11.76-23.965-25.462
	l7.207-287.801h9.778L83.747,459.91z"/>
<path style="fill:#D8D7DA;" d="M118.14,137.509c0,6.959-1.662,13.557-4.615,19.401c-7.155,14.187-21.889,23.985-38.781,23.985
	H43.396C19.535,180.895,0,161.36,0,137.509L11.812,36.251c0-5.307,3.48-9.644,7.723-9.644c2.819,0,5.369,1.146,7.217,2.984
	c1.838,1.848,2.984,4.398,2.984,7.217v65.44c0,0.248,0.01,0.496,0.031,0.743c0.32,4.491,3.603,8.384,8.095,9.076
	c5.968,0.929,11.161-3.717,11.161-9.52V36.654c0-5.555,4.502-10.046,10.046-10.046c2.767,0,5.286,1.125,7.104,2.943
	c1.817,1.817,2.943,4.326,2.943,7.104v65.595c0,4.801,3.376,9.086,8.126,9.819c5.968,0.929,11.161-3.717,11.161-9.52V36.654
	c0-5.555,4.491-10.046,10.046-10.046h0.155c4.244,0,7.723,4.337,7.723,9.644L118.14,137.509z"/>
<path style="fill:#ACABB1;" d="M504.225,460.746c0.041,1.363-0.052,2.695-0.289,3.985c-1.6,9.2-9.726,16.252-19.566,16.252
	c-11.223,0-20.216-9.169-19.855-20.237l6.174-243.259h27.361L504.225,460.746z"/>
<path style="fill:#C6C5CA;" d="M504.225,460.746c0.041,1.363-0.052,2.695-0.289,3.985c-10.015-1.239-17.666-9.85-17.336-20.072
	l5.761-227.172h5.689L504.225,460.746z"/>
<path style="fill:#E0E0E2;" d="M118.14,137.509c0,6.959-1.662,13.557-4.615,19.401c-3.325,0.826-6.804,1.27-10.387,1.27H71.79
	c-23.861,0-43.396-19.535-43.396-43.386l1.373-11.802c0.32,4.491,3.603,8.384,8.095,9.076c5.968,0.929,11.161-3.717,11.161-9.52
	V36.654c0-5.555,4.502-10.046,10.046-10.046c2.767,0,5.286,1.125,7.104,2.943c1.817,1.817,2.943,4.326,2.943,7.104v65.595
	c0,4.801,3.376,9.086,8.126,9.819c5.968,0.929,11.161-3.717,11.161-9.52V36.654c0-5.555,4.491-10.046,10.046-10.046h0.155
	c4.244,0,7.723,4.337,7.723,9.644L118.14,137.509z"/>
<path style="fill:#D8D7DA;" d="M512,31.223v198.541c0,7.413-5.999,13.412-13.402,13.412h-18.637
	c-12.824,0-23.221-9.716-23.221-21.693V88.878c0-26.102,11.203-48.094,32.885-56.86c5.637-2.282,11.987-3.665,19.039-3.996
	C510.482,27.929,512,29.406,512,31.223z"/>
<path style="fill:#E0E0E2;" d="M512,31.223v184.778h-4.873c-12.824,0-23.211-9.706-23.211-21.693V61.703
	c0-10.821,1.92-20.929,5.71-29.685c5.637-2.282,11.987-3.665,19.039-3.996C510.482,27.929,512,29.406,512,31.223z"/>
<circle style="fill:#C6C5CA;" cx="271.632" cy="291.952" r="172.945"/>
<path style="fill:#D8D7DA;" d="M410.752,291.952c0,31.378-10.387,60.329-27.909,83.602c-25.389,33.722-65.75,55.518-111.211,55.518
	c-76.839,0-139.12-62.281-139.12-139.12c0-44.067,20.485-83.344,52.451-108.837c23.779-18.957,53.897-30.283,86.669-30.283
	C348.471,152.832,410.752,215.113,410.752,291.952z"/>
<path style="fill:#E0E0E2;" d="M410.752,291.952c0,31.378-10.387,60.329-27.909,83.602c-23.768,18.967-53.897,30.304-86.679,30.304
	c-76.839,0-139.13-62.291-139.13-139.12c0-31.388,10.397-60.35,27.929-83.623c23.779-18.957,53.897-30.283,86.669-30.283
	C348.471,152.832,410.752,215.113,410.752,291.952z"/>
<g>
</g>
<g>
</g>
<g>
</g>
<g>
</g>
<g>
</g>
<g>
</g>
<g>
</g>
<g>
</g>
<g>
</g>
<g>
</g>
<g>
</g>
<g>
</g>
<g>
</g>
<g>
</g>
<g>
</g>
</svg>
