<svg height="511pt" viewBox="-76 1 511 511.999" width="511pt" xmlns="http://www.w3.org/2000/svg"><path d="m350.289062 85.761719c-3.996093-28.652344-20.558593-59.296875-47.695312-71.625-9.753906-4.390625-19.964844-6.609375-30.175781-6.621094h-.003907c-10.214843.011719-20.421874 2.226563-30.179687 6.621094-27.136719 12.328125-43.695313 42.972656-47.695313 71.625-2.625 18.816406.390626 37.980469 7.714844 55.449219 12.300782 29.34375 43.183594 48.816406 41.484375 83.519531-2.753906 56.261719-5.507812 112.523437-8.261719 168.78125-1.058593 21.652343-3.5625 43.867187-3.875 65.246093-.242187 16.371094 6.511719 32.867188 21.441407 40.878907 6.023437 3.230469 12.695312 4.847656 19.371093 4.847656h.003907c6.671875 0 13.347656-1.617187 19.371093-4.847656 14.925782-8.007813 21.683594-24.507813 21.441407-40.878907-.316407-21.378906-2.816407-43.59375-3.875-65.246093-2.753907-56.261719-5.507813-112.523438-8.261719-168.78125-1.699219-34.707031 29.1875-54.175781 41.484375-83.519531 7.320313-17.46875 10.339844-36.632813 7.710937-55.449219zm0 0" fill="#8bebdb"/><path d="m342.574219 141.207031c-12.292969 29.347657-43.183594 48.8125-41.480469 83.523438 2.753906 56.257812 5.5 112.515625 8.253906 168.777343 1.0625 21.652344 3.570313 43.867188 3.878906 65.246094.242188 16.375-6.511718 32.875-21.441406 40.882813-3.015625 1.621093-6.179687 2.824219-9.4375 3.636719-3.257812.8125-6.59375 1.210937-9.929687 1.210937-3.539063 0-7.085938-.453125-10.519531-1.375 3.042968-.800781 6.011718-1.953125 8.84375-3.476563 14.929687-8.003906 21.683593-24.507812 21.445312-40.878906-.3125-21.382812-2.816406-43.59375-3.878906-65.246094-2.757813-56.261718-5.503906-112.519531-8.257813-168.78125-1.703125-34.707031 29.1875-54.175781 41.480469-83.523437 7.324219-17.460937 10.339844-36.628906 7.714844-55.445313-3.996094-28.648437-20.558594-59.296874-47.691406-71.621093-6.402344-2.886719-12.996094-4.828125-19.65625-5.820313 3.496093-.542968 7.003906-.800781 10.519531-.800781 10.210937.007813 20.417969 2.222656 30.179687 6.621094 27.132813 12.324219 43.695313 42.972656 47.691406 71.621093 2.625 18.816407-.390624 37.984376-7.714843 55.449219zm0 0" fill="#5ee2c5"/><path d="m151.394531 36.652344-6.875-21.605469c-1.339843-4.207031-5.082031-7.332031-9.492187-7.519531-5.910156-.257813-10.78125 4.460937-10.78125 10.316406v65.085938c0 6.742187-5.277344 12.53125-12.023438 12.652343-6.871094.125-12.480468-5.40625-12.480468-12.246093v-60.285157c0-8.582031-6.953126-15.535156-15.535157-15.535156-8.578125 0-15.535156 6.953125-15.535156 15.535156v59.878907c0 6.742187-5.273437 12.53125-12.019531 12.652343-6.871094.125-12.480469-5.40625-12.480469-12.246093v-65.1875c0-5.195313-3.710937-9.804688-8.855469-10.53125-5.078125-.714844-9.800781 2.347656-11.3125 7.09375l-6.980468 21.941406c-10.773438 32.453125-12.640626 68.683594-1.523438 101.308594 9.898438 29.050781 39.359375 49.949218 42.855469 81.148437.324219 2.886719.40625 5.796875.265625 8.699219-2.730469 55.773437-5.460938 111.546875-8.191406 167.320312-1.046876 21.464844-3.527344 43.484375-3.84375 64.675782-.238282 16.230468 6.460937 32.585937 21.253906 40.527343 10.203125 5.472657 22.292968 5.601563 32.730468 0 14.796876-7.941406 21.496094-24.296875 21.257813-40.527343-.316406-21.191407-2.792969-43.210938-3.84375-64.675782-2.730469-55.773437-5.460937-111.546875-8.191406-167.320312-1.515625-30.953125 25.441406-52.539063 37.75-78.007813 10.566406-21.863281 14.230469-46.121093 12.457031-70.59375-1.050781-14.542969-4.191406-28.683593-8.605469-42.554687zm0 0" fill="#f3cc50"/><path d="m131.445312 7.996094c.984376-.3125 2.03125-.480469 3.121094-.480469 4.5 0 8.488282 2.90625 9.847656 7.195313l6.976563 21.941406c4.417969 13.867187 7.554687 28.015625 8.617187 42.554687 1.773438 24.476563-1.894531 48.734375-12.464843 70.597657-12.304688 25.46875-39.257813 47.050781-37.746094 78 2.726563 55.78125 5.460937 111.550781 8.1875 167.328124 1.050781 21.460938 3.539063 43.484376 3.847656 64.675782.238281 16.230468-6.464843 32.582031-21.261719 40.519531-7.90625 4.246094-16.773437 5.199219-25.046874 3.023437 2.625-.679687 5.199218-1.691406 7.683593-3.023437 14.796875-7.9375 21.492188-24.289063 21.25-40.519531-.308593-21.191406-2.785156-43.214844-3.835937-64.675782-2.734375-55.78125-5.460938-111.546874-8.195313-167.328124-.300781-6.164063.5625-12.328126 2.367188-18.226563 4.40625-14.386719 13.785156-26.558594 22.332031-38.691406 8.742188-12.414063 15.703125-24.894531 20.273438-39.363281 2-6.332032 3.570312-12.800782 4.707031-19.34375 2.285156-13.175782 2.851562-26.710938 1.273437-40.003907-1.523437-12.835937-5.183594-25.273437-7.828125-37.898437-.515625-2.441406-5.425781-25.816406-4.105469-26.28125zm0 0" fill="#eeb900"/><path d="m357.734375 84.722656c-4.871094-34.886718-25.292969-65.28125-52.054687-77.441406-10.710938-4.820312-21.902344-7.2695312-33.273438-7.28125-11.355469.0117188-22.546875 2.460938-33.28125 7.292969-26.738281 12.148437-47.160156 42.542969-52.027344 77.425781-2.722656 19.523438.121094 40.058594 8.226563 59.398438 4.921875 11.746093 12.421875 21.777343 19.675781 31.480468 11.402344 15.246094 22.167969 29.644532 21.234375 48.761719l-8.261719 168.785156c-.417968 8.503907-1.070312 17.292969-1.707031 25.789063-.976563 13.078125-1.984375 26.601562-2.179687 39.710937-.308594 21.109375 9.1875 38.910157 25.402343 47.613281 7 3.753907 14.929688 5.738282 22.929688 5.742188 7.996093-.003906 15.921875-1.988281 22.921875-5.742188 16.21875-8.703124 25.714844-26.503906 25.402344-47.613281-.191407-13.113281-1.203126-26.632812-2.175782-39.710937-.636718-8.496094-1.292968-17.285156-1.707031-25.789063l-8.261719-168.785156c-.761718-15.511719 6.246094-27.804687 13.925782-38.78125 2.378906-3.398437 1.554687-8.085937-1.847657-10.464844-3.402343-2.382812-8.085937-1.554687-10.464843 1.847657-8.773438 12.53125-17.609376 28.054687-16.625 48.136718l8.257812 168.78125c.429688 8.699219 1.089844 17.582032 1.730469 26.175782.960937 12.855468 1.953125 26.148437 2.140625 38.808593.226562 15.390625-6.308594 28.15625-17.480469 34.148438-4.820313 2.589843-10.292969 3.957031-15.820313 3.957031-5.527343 0-10.996093-1.367188-15.820312-3.957031-11.171875-5.996094-17.707031-18.757813-17.480469-34.148438.1875-12.660156 1.179688-25.953125 2.140625-38.808593.640625-8.59375 1.304688-17.480469 1.730469-26.175782l8.261719-168.785156c1.199218-24.519531-11.71875-41.792969-24.207032-58.496094-7.019531-9.386718-13.648437-18.25-17.855468-28.292968-7.0625-16.847657-9.550782-34.660157-7.199219-51.507813 3.167969-22.714844 16.425781-53.585937 43.335937-65.8125 8.761719-3.941406 17.882813-5.949219 27.085938-5.957031 9.222656.007812 18.339844 2.015625 27.078125 5.945312 26.933594 12.238282 40.191406 43.105469 43.363281 65.824219 2.351563 16.847656-.140625 34.660156-7.203125 51.507813-1.40625 3.359374-3.164062 6.769531-5.375 10.429687-2.144531 3.550781-1.003906 8.171875 2.550781 10.316406 3.550782 2.144531 8.171876 1.003907 10.316407-2.550781 2.59375-4.292969 4.675781-8.34375 6.367187-12.386719 8.109375-19.332031 10.953125-39.871093 8.230469-59.390625zm0 0"/><path d="m158.554688 34.371094-6.875-21.601563c-2.324219-7.304687-8.886719-12.429687-16.328126-12.7499998-4.898437-.2070312-9.574218 1.5390628-13.121093 4.9374998-3.496094 3.347657-5.5 8.046875-5.5 12.886719v65.085938c0 2.738281-2.125 5.09375-4.644531 5.136718-.03125.003906-.0625.003906-.089844.003906-1.25 0-2.425782-.480468-3.320313-1.355468-.914062-.898438-1.417969-2.101563-1.417969-3.378906v-60.285157c0-12.710937-10.339843-23.050781-23.050781-23.050781-12.707031 0-23.046875 10.339844-23.046875 23.050781v59.878907c0 2.738281-2.128906 5.09375-4.644531 5.136718-1.316406.03125-2.496094-.457031-3.410156-1.351562-.914063-.898438-1.417969-2.097656-1.417969-3.378906v-65.183594c0-9.015625-6.585938-16.742188-15.320312-17.972656-8.667969-1.214844-16.875 3.933593-19.523438 12.253906l-6.953125 21.851562c-11.980469 36.101563-12.515625 73.78125-1.503906 106.101563 4.640625 13.617187 13.03125 25.285156 21.148437 36.566406 10.074219 14.007813 19.585938 27.238281 21.351563 42.988281.277343 2.453125.351562 4.976563.230469 7.5l-7.960938 162.589844c-.203125 4.144531 2.996094 7.667969 7.140625 7.871094 4.148437.199218 7.667969-2.992188 7.871094-7.136719l7.960937-162.589844c.160156-3.324219.058594-6.65625-.304687-9.90625-2.203125-19.660156-13.328125-35.128906-24.089844-50.089843-7.816406-10.871094-15.199219-21.140626-19.121094-32.644532-9.960937-29.230468-9.414062-63.507812 1.570313-96.605468l6.980468-21.941407c.417969-1.3125 1.714844-2.132812 3.105469-1.929687 1.339844.1875 2.390625 1.546875 2.390625 3.089844v65.183593c0 5.347657 2.101563 10.359375 5.917969 14.105469 3.8125 3.746094 8.863281 5.742188 14.210937 5.65625 10.699219-.195312 19.398438-9.242188 19.398438-20.167969v-59.875c0-4.421875 3.597656-8.019531 8.019531-8.019531s8.023438 3.597656 8.023438 8.019531v60.285157c0 5.34375 2.101562 10.355468 5.917969 14.101562 3.8125 3.746094 8.875 5.742188 14.210937 5.65625 10.699219-.195312 19.398437-9.242188 19.398437-20.164062v-65.085938c0-1.046875.542969-1.722656.867188-2.035156.328125-.308594 1.015625-.808594 2.078125-.777344 1.148437.050781 2.242187.992188 2.65625 2.292969l6.875 21.605469c4.628906 14.558593 7.335937 27.910156 8.273437 40.824218 1.777344 24.527344-2.167968 46.996094-11.730468 66.777344-3.804688 7.875-9.167969 15.433594-14.851563 23.441406-12.179687 17.164063-24.773437 34.910156-23.636719 58.203125l8.191407 167.320313c.421875 8.625 1.078125 17.4375 1.714843 25.957031.953126 12.742187 1.933594 25.917969 2.121094 38.464844.222656 15.230469-6.242187 27.859375-17.296875 33.792969-8.140625 4.367187-17.480469 4.367187-25.621093 0-11.054688-5.933594-17.519532-18.5625-17.292969-33.792969.164062-11.292969.976562-23.011719 1.789062-34.050781.308594-4.136719-2.800781-7.742188-6.9375-8.046876-4.148437-.296874-7.746093 2.800782-8.050781 6.941407-.832031 11.257812-1.65625 23.230469-1.828125 34.933593-.308594 20.953126 9.117187 38.617188 25.214844 47.257813 6.234375 3.347656 13.074219 5.019531 19.917969 5.019531 6.839843 0 13.683593-1.671875 19.917968-5.019531 16.097656-8.640625 25.523438-26.304687 25.214844-47.257813-.191406-12.996093-1.191406-26.398437-2.160156-39.359374-.628906-8.429688-1.277344-17.140626-1.691406-25.574219l-8.1875-167.320313c-.886719-18.101562 9.683593-33 20.878906-48.769531 5.789062-8.160156 11.777344-16.597656 16.128906-25.601563 10.722656-22.183593 15.15625-47.21875 13.1875-74.40625-1.027344-14.105468-3.953125-28.59375-8.945312-44.292968zm0 0"/></svg>