<svg height="512" viewBox="0 0 256 256" width="512" xmlns="http://www.w3.org/2000/svg"><g fill="#ebe7f2"><path d="m79.5 187.074a2.494 2.494 0 0 1 -1.627-.6 77.033 77.033 0 0 1 28.554-132.427 2.5 2.5 0 0 1 1.4 4.8 72.033 72.033 0 0 0 -26.7 123.829 2.5 2.5 0 0 1 -1.629 4.4z"/><path d="m128 205.017a76.268 76.268 0 0 1 -34.067-7.926 2.5 2.5 0 0 1 2.214-4.483 72.174 72.174 0 0 0 63.707 0 2.5 2.5 0 0 1 2.214 4.483 76.253 76.253 0 0 1 -34.068 7.926z"/><path d="m176.5 187.075a2.5 2.5 0 0 1 -1.629-4.4 72.033 72.033 0 0 0 -26.7-123.831 2.5 2.5 0 0 1 1.4-4.8 77.034 77.034 0 0 1 28.557 132.427 2.494 2.494 0 0 1 -1.628.604z"/></g><path d="m128 104a29.863 29.863 0 1 0 -29.862-29.865 29.9 29.9 0 0 0 29.862 29.865zm0-5a24.9 24.9 0 0 1 -24.746-22.484 29.921 29.921 0 0 0 24.746-17.801 29.921 29.921 0 0 0 24.746 17.8 24.9 24.9 0 0 1 -24.746 22.485zm24.72-27.5a24.906 24.906 0 0 1 -22.078-22.079 24.906 24.906 0 0 1 22.078 22.072zm-27.362-22.086a24.906 24.906 0 0 1 -22.078 22.079 24.906 24.906 0 0 1 22.078-22.079z" fill="#846f75"/><path d="m179 123.061a11.618 11.618 0 0 0 -11.6-11.605h-78.793a11.618 11.618 0 0 0 -11.607 11.605v71.784a2.5 2.5 0 0 0 2.5 2.5h97a2.5 2.5 0 0 0 2.5-2.5zm-5 69.284h-92v-69.284a6.612 6.612 0 0 1 6.6-6.605h78.786a6.612 6.612 0 0 1 6.6 6.605z" fill="#846f75"/><path d="m128 229.031a101.031 101.031 0 1 1 101.031-101.031 101.145 101.145 0 0 1 -101.031 101.031zm0-197.062a96.031 96.031 0 1 0 96.031 96.031 96.139 96.139 0 0 0 -96.031-96.031z" fill="#ed9abc"/><path d="m143.67 181.236a3.853 3.853 0 0 1 -2.266-.739l-13.404-9.738-13.4 9.741a3.857 3.857 0 0 1 -5.936-4.312l5.119-15.757-13.4-9.739a3.857 3.857 0 0 1 2.267-6.977h16.568l5.12-15.757a3.857 3.857 0 0 1 7.336 0l5.12 15.757h16.568a3.857 3.857 0 0 1 2.266 6.977l-13.4 9.739 5.119 15.757a3.861 3.861 0 0 1 -3.669 5.051zm-37.508-32.524 11.23 8.159a3.849 3.849 0 0 1 1.4 4.313l-4.289 13.2 11.228-8.158a3.845 3.845 0 0 1 4.536 0l11.228 8.158-4.289-13.2a3.848 3.848 0 0 1 1.4-4.312l11.23-8.159h-13.879a3.846 3.846 0 0 1 -3.668-2.666l-4.289-13.2-4.289 13.2a3.846 3.846 0 0 1 -3.668 2.665z" fill="#ed9abc"/></svg>